<svg width="24" height="24" viewBox="0 0 24 24" fill="none" xmlns="http://www.w3.org/2000/svg">
<path d="M0 11.5C0 6.07885 0 3.36827 1.68413 1.68413C3.36827 0 6.07885 0 11.5 0H12.5C17.9212 0 20.6318 0 22.3158 1.68413C24 3.36827 24 6.07885 24 11.5V12.5C24 17.9212 24 20.6318 22.3158 22.3158C20.6318 24 17.9212 24 12.5 24H11.5C6.07885 24 3.36827 24 1.68413 22.3158C0 20.6318 0 17.9212 0 12.5L0 11.5Z" fill="#F4F4F6"/>
<path fill-rule="evenodd" clip-rule="evenodd" d="M6.35055 7.5H4.60015C4.10003 7.5 4 7.7354 4 7.9949C4 8.45845 4.59343 10.7574 6.7631 13.7979C8.20955 15.8744 10.2474 17 12.1019 17C13.2145 17 13.3522 16.75 13.3522 16.3194V14.75C13.3522 14.25 13.4576 14.1502 13.8099 14.1502C14.0695 14.1502 14.5146 14.28 15.5531 15.2811C16.7399 16.4677 16.9356 17 17.6031 17H19.3535C19.8537 17 20.1037 16.75 19.9595 16.2567C19.8016 15.765 19.235 15.0515 18.4831 14.2058C18.0751 13.7238 17.4631 13.2047 17.2777 12.9451C17.0181 12.6114 17.0922 12.463 17.2777 12.1664C17.2777 12.1664 19.4103 9.16295 19.6328 8.1433C19.7441 7.77245 19.6328 7.5 19.1035 7.5H17.3531C16.908 7.5 16.7028 7.7354 16.5915 7.9949C16.5915 7.9949 15.7014 10.1641 14.4404 11.5731C14.0324 11.981 13.847 12.1108 13.6244 12.1108C13.5132 12.1108 13.3521 11.981 13.3521 11.6103V8.1433C13.3521 7.6983 13.223 7.5 12.852 7.5H10.1014C9.8233 7.5 9.656 7.7065 9.656 7.90225C9.656 8.32405 10.2865 8.42135 10.3515 9.6079V12.185C10.3515 12.75 10.2494 12.8525 10.0269 12.8525C9.4335 12.8525 7.99005 10.6736 7.13395 8.18035C6.9662 7.69575 6.7979 7.5 6.35055 7.5Z" fill="#2787F5"/>
</svg>
