<svg width="24" height="24" viewBox="0 0 24 24" fill="none" xmlns="http://www.w3.org/2000/svg">
<path d="M0 11.5C0 6.07885 0 3.36827 1.68413 1.68413C3.36827 0 6.07885 0 11.5 0H12.5C17.9212 0 20.6318 0 22.3158 1.68413C24 3.36827 24 6.07885 24 11.5V12.5C24 17.9212 24 20.6318 22.3158 22.3158C20.6318 24 17.9212 24 12.5 24H11.5C6.07885 24 3.36827 24 1.68413 22.3158C0 20.6318 0 17.9212 0 12.5L0 11.5Z" fill="#F4F4F6"/>
<path fill-rule="evenodd" clip-rule="evenodd" d="M4.96022 11.874C8.70967 10.3559 11.2099 9.35512 12.4609 8.87158C16.0327 7.49099 16.7749 7.25117 17.2587 7.24325C17.3651 7.24151 17.603 7.26601 17.7571 7.38221C17.8872 7.48032 17.923 7.61286 17.9401 7.70589C17.9573 7.79891 17.9786 8.01083 17.9616 8.17641C17.7681 10.0663 16.9305 14.6527 16.5045 16.7694C16.3242 17.6651 15.9692 17.9654 15.6255 17.9948C14.8786 18.0587 14.3114 17.5361 13.588 17.0954C12.456 16.4059 11.8165 15.9766 10.7177 15.3037C9.44783 14.5261 10.271 14.0987 10.9947 13.4002C11.1841 13.2174 14.475 10.4357 14.5387 10.1834C14.5466 10.1519 14.554 10.0342 14.4788 9.9721C14.4036 9.90998 14.2926 9.93122 14.2125 9.94812C14.099 9.97206 12.2906 11.0828 8.78738 13.2804C8.27408 13.6079 7.80915 13.7675 7.39258 13.7591C6.93335 13.7499 6.04997 13.5178 5.39328 13.3195C4.58781 13.0762 3.94764 12.9475 4.00338 12.5343C4.03242 12.3191 4.35136 12.099 4.96022 11.874Z" fill="#2AABEE"/>
</svg>
