<svg width="173" height="41" viewBox="0 0 173 41" fill="none" xmlns="http://www.w3.org/2000/svg">
<rect x="0.5" y="1" width="172" height="39" rx="7.5" fill="white"/>
<path d="M17.488 25.5V14.204H21.44C22.4213 14.204 23.2107 14.46 23.808 14.972C24.416 15.484 24.72 16.188 24.72 17.084C24.72 17.628 24.592 18.1133 24.336 18.54C24.0907 18.9667 23.7493 19.292 23.312 19.516V19.548C23.8987 19.7187 24.3573 20.0547 24.688 20.556C25.0187 21.0573 25.184 21.6333 25.184 22.284C25.184 23.308 24.8373 24.1027 24.144 24.668C23.4507 25.2227 22.5813 25.5 21.536 25.5H17.488ZM19.072 18.956H21.44C21.9413 18.956 22.3413 18.796 22.64 18.476C22.9493 18.156 23.104 17.7453 23.104 17.244C23.104 16.7427 22.9547 16.3427 22.656 16.044C22.3573 15.7347 21.9467 15.58 21.424 15.58H19.072V18.956ZM19.072 24.124H21.616C22.2133 24.124 22.6827 23.948 23.024 23.596C23.376 23.244 23.552 22.7747 23.552 22.188C23.552 21.612 23.376 21.148 23.024 20.796C22.672 20.444 22.2027 20.268 21.616 20.268H19.072V24.124ZM34.4343 25.5V17.404H35.9863V25.5H34.4343ZM27.1063 25.5V17.404H28.6583V20.332H30.2423C31.1383 20.332 31.8529 20.5507 32.3863 20.988C32.9196 21.4147 33.1863 22.0653 33.1863 22.94C33.1863 23.7293 32.9356 24.3533 32.4343 24.812C31.9436 25.2707 31.2076 25.5 30.2263 25.5H27.1063ZM28.6583 24.38H30.0182C30.5516 24.38 30.9516 24.252 31.2183 23.996C31.4849 23.7293 31.6183 23.372 31.6183 22.924C31.6183 22.476 31.4849 22.1187 31.2183 21.852C30.9516 21.5853 30.5463 21.452 30.0023 21.452H28.6583V24.38ZM41.9555 16.476C41.3048 16.476 40.7448 16.2947 40.2755 15.932C39.8168 15.5587 39.5875 15.0573 39.5875 14.428V14.188H40.8355V14.412C40.8355 14.7427 40.9475 15.004 41.1715 15.196C41.3955 15.3773 41.6568 15.468 41.9555 15.468C42.2648 15.468 42.5315 15.3773 42.7555 15.196C42.9795 15.004 43.0915 14.7373 43.0915 14.396V14.188H44.3235V14.428C44.3235 15.0573 44.0942 15.5587 43.6355 15.932C43.1768 16.2947 42.6168 16.476 41.9555 16.476ZM38.3875 25.5V17.404H39.8755V22.236C39.8755 22.8013 39.8595 23.164 39.8275 23.324H39.8595C39.9128 23.196 40.1528 22.8333 40.5795 22.236L44.0675 17.404H45.5715V25.5H44.0675V20.668C44.0675 20.5187 44.0728 20.3107 44.0835 20.044C44.1048 19.7667 44.1155 19.6173 44.1155 19.596H44.0835C44.0728 19.6173 43.8382 19.9747 43.3795 20.668L39.8755 25.5H38.3875ZM49.902 25.5V18.732H47.086V17.404H54.27V18.732H51.438V25.5H49.902ZM55.7938 25.5V17.404H57.2818V22.236C57.2818 22.8013 57.2658 23.164 57.2338 23.324H57.2658C57.3191 23.196 57.5591 22.8333 57.9858 22.236L61.4738 17.404H62.9778V25.5H61.4738V20.668C61.4738 20.5187 61.4791 20.3107 61.4898 20.044C61.5111 19.7667 61.5218 19.6173 61.5218 19.596H61.4898C61.4791 19.6173 61.2444 19.9747 60.7858 20.668L57.2818 25.5H55.7938ZM69.3563 25.5V17.404H70.8443V22.236C70.8443 22.8013 70.8283 23.164 70.7963 23.324H70.8283C70.8816 23.196 71.1216 22.8333 71.5483 22.236L75.0363 17.404H76.5403V25.5H75.0363V20.668C75.0363 20.5187 75.0416 20.3107 75.0523 20.044C75.0736 19.7667 75.0843 19.6173 75.0843 19.596H75.0523C75.0416 19.6173 74.8069 19.9747 74.3483 20.668L70.8443 25.5H69.3563ZM78.1348 24.508L78.8548 23.484C79.4628 24.124 80.1668 24.444 80.9668 24.444C81.4574 24.444 81.8574 24.332 82.1668 24.108C82.4868 23.8733 82.6468 23.5427 82.6468 23.116C82.6468 22.2947 82.0921 21.884 80.9828 21.884H79.9908V20.764H80.8388C81.8628 20.764 82.3748 20.3747 82.3748 19.596C82.3748 19.2227 82.2468 18.9347 81.9908 18.732C81.7348 18.5293 81.3828 18.428 80.9348 18.428C80.2521 18.428 79.5961 18.6627 78.9668 19.132L78.3908 18.092C79.1801 17.5053 80.1188 17.212 81.2068 17.212C82.0068 17.212 82.6628 17.404 83.1748 17.788C83.6868 18.172 83.9428 18.7107 83.9428 19.404C83.9428 20.3 83.5481 20.9133 82.7588 21.244V21.276C83.7294 21.5853 84.2148 22.22 84.2148 23.18C84.2148 23.98 83.9161 24.5987 83.3188 25.036C82.7321 25.4733 81.9961 25.692 81.1108 25.692C79.9588 25.692 78.9668 25.2973 78.1348 24.508ZM89.4186 23.292C89.4186 22.6947 89.584 22.1933 89.9146 21.788C90.2453 21.3827 90.6826 21.0947 91.2266 20.924C91.7813 20.7427 92.2933 20.62 92.7626 20.556C93.232 20.492 93.728 20.46 94.2506 20.46H94.6666V20.3C94.6666 19.116 94.0746 18.524 92.8906 18.524C92.112 18.524 91.3546 18.7853 90.6186 19.308L89.9946 18.172C90.3253 17.8947 90.7733 17.6653 91.3386 17.484C91.904 17.3027 92.464 17.212 93.0186 17.212C94.0426 17.212 94.832 17.484 95.3866 18.028C95.9413 18.572 96.2186 19.356 96.2186 20.38V25.5H94.7626V24.684L94.8106 24.044H94.7786C94.5333 24.524 94.1706 24.9187 93.6906 25.228C93.2213 25.5373 92.6986 25.692 92.1226 25.692C91.3866 25.692 90.752 25.4733 90.2186 25.036C89.6853 24.5987 89.4186 24.0173 89.4186 23.292ZM90.9706 23.164C90.9706 23.516 91.104 23.82 91.3706 24.076C91.6373 24.332 92.0106 24.46 92.4906 24.46C93.1306 24.46 93.6533 24.1933 94.0586 23.66C94.464 23.1267 94.6666 22.5347 94.6666 21.884V21.58H94.2666C92.0693 21.58 90.9706 22.108 90.9706 23.164ZM98.5125 25.5V17.404H100.065V20.668H101.201L103.409 17.404H105.169L102.465 21.26V21.292L105.489 25.5H103.649L101.233 21.996H100.065V25.5H98.5125ZM106.872 25.5V17.404H108.424V20.668H109.56L111.768 17.404H113.528L110.824 21.26V21.292L113.848 25.5H112.008L109.592 21.996H108.424V25.5H106.872ZM114.481 23.292C114.481 22.6947 114.646 22.1933 114.977 21.788C115.308 21.3827 115.745 21.0947 116.289 20.924C116.844 20.7427 117.356 20.62 117.825 20.556C118.294 20.492 118.79 20.46 119.313 20.46H119.729V20.3C119.729 19.116 119.137 18.524 117.953 18.524C117.174 18.524 116.417 18.7853 115.681 19.308L115.057 18.172C115.388 17.8947 115.836 17.6653 116.401 17.484C116.966 17.3027 117.526 17.212 118.081 17.212C119.105 17.212 119.894 17.484 120.449 18.028C121.004 18.572 121.281 19.356 121.281 20.38V25.5H119.825V24.684L119.873 24.044H119.841C119.596 24.524 119.233 24.9187 118.753 25.228C118.284 25.5373 117.761 25.692 117.185 25.692C116.449 25.692 115.814 25.4733 115.281 25.036C114.748 24.5987 114.481 24.0173 114.481 23.292ZM116.033 23.164C116.033 23.516 116.166 23.82 116.433 24.076C116.7 24.332 117.073 24.46 117.553 24.46C118.193 24.46 118.716 24.1933 119.121 23.66C119.526 23.1267 119.729 22.5347 119.729 21.884V21.58H119.329C117.132 21.58 116.033 22.108 116.033 23.164ZM123.019 27.18C123.317 27.4147 123.627 27.532 123.947 27.532C124.597 27.532 125.088 27.132 125.419 26.332L125.819 25.404L122.427 17.404H124.171L126.203 22.7L126.507 23.676H126.539C126.624 23.3133 126.715 22.9933 126.811 22.716L128.779 17.404H130.459L126.651 26.956C126.416 27.5747 126.064 28.044 125.595 28.364C125.136 28.6947 124.613 28.86 124.027 28.86C123.76 28.86 123.499 28.8173 123.243 28.732C122.987 28.6467 122.795 28.5613 122.667 28.476L122.475 28.364L123.019 27.18ZM131.981 25.5V17.404H133.533V20.7H137.629V17.404H139.181V25.5H137.629V22.028H133.533V25.5H131.981ZM143.527 25.5V18.732H140.711V17.404H147.895V18.732H145.063V25.5H143.527ZM148.669 23.292C148.669 22.6947 148.834 22.1933 149.165 21.788C149.495 21.3827 149.933 21.0947 150.477 20.924C151.031 20.7427 151.543 20.62 152.013 20.556C152.482 20.492 152.978 20.46 153.501 20.46H153.917V20.3C153.917 19.116 153.325 18.524 152.141 18.524C151.362 18.524 150.605 18.7853 149.869 19.308L149.245 18.172C149.575 17.8947 150.023 17.6653 150.589 17.484C151.154 17.3027 151.714 17.212 152.269 17.212C153.293 17.212 154.082 17.484 154.637 18.028C155.191 18.572 155.469 19.356 155.469 20.38V25.5H154.013V24.684L154.061 24.044H154.029C153.783 24.524 153.421 24.9187 152.941 25.228C152.471 25.5373 151.949 25.692 151.373 25.692C150.637 25.692 150.002 25.4733 149.469 25.036C148.935 24.5987 148.669 24.0173 148.669 23.292ZM150.221 23.164C150.221 23.516 150.354 23.82 150.621 24.076C150.887 24.332 151.261 24.46 151.741 24.46C152.381 24.46 152.903 24.1933 153.309 23.66C153.714 23.1267 153.917 22.5347 153.917 21.884V21.58H153.517C151.319 21.58 150.221 22.108 150.221 23.164Z" fill="#7953C3"/>
<rect x="0.5" y="1" width="172" height="39" rx="7.5" stroke="#7953C3"/>
</svg>