<svg width="96" height="47" viewBox="0 0 96 47" fill="none" xmlns="http://www.w3.org/2000/svg">
<g clip-path="url(#clip0_737_283)">
<path d="M3.90048 12.8047C4.06579 12.5791 4.26466 12.3813 4.48992 12.2182C4.77987 12.0018 5.09019 11.8151 5.41632 11.6611C5.79943 11.4799 6.19869 11.3366 6.60864 11.2329C7.07208 11.1158 7.54811 11.0583 8.0256 11.0619C8.80834 11.0506 9.58562 11.1961 10.3133 11.49C10.974 11.7607 11.5715 12.1696 12.0672 12.6903C12.5668 13.2274 12.9492 13.866 13.1894 14.5641C13.4578 15.3394 13.5907 16.1565 13.5821 16.9784V25.9788H9.70944V17.6597C9.70944 16.7839 9.48032 16.0743 9.02208 15.5308C8.56384 14.9873 7.9136 14.7159 7.07136 14.7166C6.11712 14.7166 5.34912 15.0023 4.76736 15.5738C4.1856 16.1453 3.89568 16.9455 3.8976 17.9744V25.9739H0V6.40234H3.90048V12.8047Z" fill="#7953C3"/>
<path d="M22.618 11.0306C23.671 11.0209 24.7153 11.2249 25.69 11.6308C26.6028 12.0096 27.4363 12.5623 28.1457 13.2592C28.8414 13.9505 29.3946 14.7763 29.7729 15.6882C30.169 16.6365 30.3696 17.6575 30.3623 18.688C30.3694 19.6938 30.1768 20.6907 29.7958 21.6188C29.4149 22.5468 28.8536 23.3869 28.1457 24.0884C27.4365 24.7856 26.603 25.3384 25.69 25.7169C24.7154 26.1232 23.671 26.3272 22.618 26.317C21.5663 26.3267 20.5228 26.1275 19.546 25.7306C18.6311 25.3613 17.7962 24.8131 17.0884 24.1168C16.3935 23.428 15.8443 22.6017 15.4746 21.6888C15.0872 20.7379 14.8913 19.7174 14.8986 18.688C14.8933 17.6796 15.0854 16.6801 15.4635 15.7481C15.8416 14.816 16.3982 13.9699 17.1009 13.2592C17.8046 12.5605 18.6351 12.0078 19.546 11.6317C20.5206 11.2254 21.5649 11.021 22.618 11.0306ZM22.618 14.6306C22.0938 14.6273 21.5742 14.7293 21.0887 14.9307C20.6245 15.1222 20.2042 15.4094 19.8542 15.7742C19.5028 16.1443 19.2262 16.581 19.0401 17.0596C18.8398 17.578 18.7397 18.1309 18.7454 18.688C18.7393 19.2442 18.8347 19.7967 19.0266 20.3174C19.2021 20.7944 19.469 21.231 19.8119 21.6018C20.1629 21.9764 20.5855 22.2738 21.0538 22.4755C21.5221 22.6773 22.026 22.7791 22.5345 22.7747C23.3137 22.7822 24.0774 22.5523 24.7274 22.1146C25.3774 21.6769 25.8841 21.0514 26.1825 20.3184C26.392 19.8019 26.4968 19.2477 26.4906 18.689C26.4968 18.1319 26.3967 17.5788 26.1959 17.0605C26.0101 16.582 25.7339 16.1453 25.3828 15.7752C25.0324 15.4108 24.6122 15.1237 24.1482 14.9316C23.6625 14.7299 23.1425 14.6276 22.618 14.6306Z" fill="#7953C3"/>
<path d="M35.4698 12.7734C35.6779 12.5646 35.8981 12.3688 36.1293 12.1869C36.4056 11.9725 36.7017 11.7859 37.0135 11.6298C37.3677 11.4522 37.7394 11.3133 38.1223 11.2153C38.5583 11.1068 39.0059 11.0542 39.4548 11.0589C40.2413 11.0522 41.0204 11.214 41.7415 11.534C42.4748 11.8719 43.1095 12.3976 43.5837 13.0598C44.1487 12.4472 44.8252 11.9522 45.5757 11.6024C46.3437 11.2408 47.2512 11.0599 48.2983 11.0599C49.1024 11.0465 49.9018 11.1868 50.6551 11.4734C51.3197 11.734 51.9205 12.1389 52.4157 12.66C52.9098 13.1869 53.2878 13.8151 53.5245 14.5025C53.7853 15.2695 53.9133 16.0769 53.9028 16.8885V25.9788H50.034V17.5453C50.034 16.6878 49.8237 16.0019 49.4032 15.4878C48.9828 14.9737 48.3885 14.7166 47.6205 14.7166C46.7412 14.7166 46.0349 14.9974 45.5018 15.5592C44.9687 16.1209 44.7021 16.897 44.7021 17.8875V25.973H40.8621V17.5453C40.8621 16.6878 40.6516 16.0019 40.2304 15.4878C39.8093 14.9737 39.2154 14.7166 38.4487 14.7166C37.5687 14.7166 36.8624 14.9974 36.33 15.5592C35.7975 16.1209 35.5296 16.897 35.5264 17.8875V25.973H31.625V11.3111H35.4698V12.7734Z" fill="#7953C3"/>
<path d="M69.6211 22.8314C68.929 23.8994 67.9893 24.7775 66.8851 25.3884C65.7715 26.0075 64.4102 26.317 62.8013 26.317C61.6416 26.317 60.5987 26.1215 59.6726 25.7305C58.781 25.3637 57.9701 24.8197 57.287 24.1304C56.6163 23.4441 56.0952 22.6214 55.7578 21.7161C55.3963 20.7487 55.2156 19.721 55.225 18.686C55.2194 17.669 55.4051 16.6604 55.7721 15.7146C56.1243 14.8016 56.654 13.9704 57.3293 13.2709C58.0186 12.5664 58.8391 12.0091 59.7427 11.6317C60.7219 11.223 61.7718 11.0189 62.8301 11.0316C63.9706 11.0316 64.9901 11.2222 65.8886 11.6034C66.75 11.9596 67.5288 12.4949 68.1754 13.1751C68.809 13.8529 69.3009 14.6547 69.6211 15.5318C69.9646 16.4783 70.1357 17.4806 70.1261 18.4895C70.1261 18.775 70.1168 19.0702 70.0982 19.3751C70.079 19.6801 70.0694 19.8511 70.0694 19.8893H59.0698C59.2752 20.8231 59.7101 21.5659 60.3744 22.1179C61.0387 22.6698 61.8758 22.9461 62.8858 22.9467C63.7651 22.9467 64.5181 22.7705 65.1446 22.4179C65.763 22.0734 66.2959 21.5897 66.7027 21.0036L69.6211 22.8314ZM62.8051 14.2884C61.888 14.2884 61.1257 14.5217 60.5184 14.9883C59.911 15.4549 59.4762 16.1065 59.2138 16.9432H66.2006C65.9952 16.0479 65.5744 15.3812 64.9382 14.9433C64.3084 14.5077 63.5626 14.2792 62.8013 14.2884H62.8051Z" fill="#7953C3"/>
<path d="M85.6162 22.8314C84.9241 23.8994 83.9845 24.7775 82.8802 25.3884C81.7673 26.0075 80.4063 26.317 78.7974 26.317C77.6377 26.317 76.5948 26.1215 75.6687 25.7305C74.7771 25.3637 73.9661 24.8197 73.2831 24.1304C72.6123 23.4441 72.0913 22.6214 71.7538 21.7161C71.3924 20.7487 71.2117 19.721 71.221 18.686C71.2155 17.669 71.4012 16.6604 71.7682 15.7145C72.1201 14.8014 72.6497 13.9702 73.3254 13.2709C74.0159 12.5656 74.8381 12.0083 75.7436 11.6317C76.7225 11.2231 77.7721 11.019 78.83 11.0315C79.9711 11.0315 80.991 11.2222 81.8895 11.6034C82.7509 11.9596 83.5297 12.4949 84.1762 13.1751C84.8099 13.8527 85.3015 14.6545 85.621 15.5318C85.965 16.4781 86.1361 17.4805 86.126 18.4895C86.126 18.775 86.1167 19.0701 86.0982 19.3751C86.0799 19.6801 86.0703 19.8511 86.0703 19.8893H75.0649C75.2703 20.8231 75.7055 21.5659 76.3705 22.1179C77.0354 22.6698 77.8726 22.9461 78.8818 22.9467C79.7612 22.9467 80.5142 22.7705 81.1407 22.4179C81.7588 22.0734 82.2914 21.5897 82.6978 21.0036L85.6162 22.8314ZM78.8002 14.2884C77.8838 14.2884 77.1215 14.5217 76.5135 14.9883C75.9055 15.4549 75.4703 16.1065 75.2079 16.9432H82.1958C81.9903 16.0492 81.5676 15.3832 80.9276 14.9453C80.2999 14.5103 79.5566 14.2811 78.7974 14.2884H78.8002Z" fill="#7953C3"/>
<path d="M95.9999 11.317V14.8573H92.4642V20.7436C92.4642 21.4102 92.6185 21.8817 92.927 22.158C93.2354 22.4342 93.7174 22.5747 94.3727 22.5792H96.0047V25.9788H94.0914C92.1644 25.9788 90.7612 25.5553 89.8818 24.7081C89.0025 23.861 88.5631 22.6086 88.5638 20.9508V14.8573H86.4863V11.317H88.5638V7.54498H92.4642V11.317H95.9999Z" fill="#7953C3"/>
<path d="M52.2543 8.89485C51.9673 8.89478 51.6853 8.81829 51.4363 8.67297L42.7503 3.61659L34.0949 8.65831C33.7149 8.87957 33.2641 8.93806 32.8418 8.82093C32.4194 8.70379 32.06 8.42062 31.8427 8.03371C31.6254 7.6468 31.568 7.18784 31.683 6.7578C31.7981 6.32776 32.0762 5.96186 32.4562 5.7406L41.9314 0.221882C42.1808 0.0762946 42.4633 -0.000305176 42.7507 -0.000305176C43.0382 -0.000305176 43.3207 0.0762946 43.5701 0.221882L53.0741 5.75917C53.3885 5.94381 53.6343 6.22882 53.7735 6.57007C53.9127 6.91131 53.9376 7.28977 53.8442 7.64685C53.7508 8.00393 53.5445 8.31972 53.257 8.54533C52.9696 8.77094 52.6172 8.89378 52.2543 8.89485Z" fill="#7953C3"/>
<path d="M10.0723 40.5234H3.5088V46.6999H0V30.913H3.5088V37.2508H10.0723V30.913H13.5811V46.6999H10.0723V40.5234Z" fill="#102D69"/>
<path d="M21.1194 46.9997C19.1425 46.9997 17.6298 46.5348 16.5815 45.6049C15.5332 44.675 14.9572 43.3962 14.8535 41.7684H18.3623C18.3761 42.0717 18.437 42.371 18.5428 42.6549C18.6493 42.9412 18.8154 43.2006 19.0295 43.4154C19.2766 43.6564 19.5711 43.8413 19.8935 43.9579C20.3192 44.1077 20.7681 44.1779 21.2183 44.1651C22.1079 44.1651 22.7754 44.0038 23.2209 43.6813C23.6663 43.3587 23.8903 42.9514 23.8929 42.4594C23.9029 42.1817 23.81 41.9103 23.6327 41.699C23.4313 41.4793 23.1888 41.3028 22.9194 41.1799C22.5803 41.0217 22.2266 40.8983 21.8634 40.8114C21.4641 40.7117 21.0455 40.6156 20.6078 40.5231C19.9889 40.3706 19.355 40.1979 18.706 40.005C18.0769 39.823 17.4808 39.5388 16.9406 39.1635C16.4066 38.7884 15.9618 38.2964 15.6388 37.7237C15.2996 37.1326 15.13 36.3683 15.13 35.4306C15.1232 34.7686 15.2541 34.1127 15.514 33.5059C15.7693 32.9158 16.1569 32.3949 16.6458 31.985C17.1872 31.538 17.8058 31.1978 18.4698 30.9822C19.2711 30.7236 20.1082 30.5992 20.9486 30.6137C21.8046 30.5987 22.6573 30.7272 23.4724 30.9939C24.1537 31.2186 24.7845 31.5787 25.3281 32.0534C25.8336 32.5074 26.2387 33.0654 26.5166 33.6907C26.81 34.357 26.9862 35.0706 27.0369 35.7991H23.4945C23.4766 35.2019 23.2522 34.6304 22.8609 34.1853C22.4686 33.7402 21.7966 33.5177 20.8449 33.5177C20.1351 33.5177 19.5694 33.6558 19.1476 33.9321C18.9465 34.0561 18.7817 34.2326 18.6703 34.4433C18.5588 34.654 18.5049 34.8913 18.514 35.1305C18.5032 35.4346 18.6 35.7325 18.7866 35.9701C18.9864 36.2077 19.233 36.3999 19.5105 36.5341C19.8482 36.7013 20.2021 36.8323 20.5665 36.9251C20.9658 37.0326 21.3844 37.1411 21.8222 37.2476C22.4558 37.3864 23.1009 37.5477 23.7575 37.7315C24.3903 37.9056 24.9962 38.1688 25.5575 38.5134C26.0956 38.8489 26.5484 39.3087 26.8794 39.8555C27.2193 40.4074 27.3889 41.1294 27.3882 42.0215C27.3957 42.7084 27.2568 43.3886 26.9812 44.0155C26.7033 44.6302 26.2889 45.1706 25.7706 45.5941C25.1856 46.0656 24.5167 46.4177 23.8007 46.6312C22.9301 46.8899 22.0263 47.0141 21.1194 46.9997Z" fill="#102D69"/>
<path d="M28.791 30.9133H40.1277V34.1389H32.2998V37.1123H39.543V40.246H32.2998V43.4716H40.1545V46.6972H28.791V30.9133Z" fill="#102D69"/>
</g>
<defs>
<clipPath id="clip0_737_283">
<rect width="96" height="47" fill="white"/>
</clipPath>
</defs>
</svg>